<?xml version="1.0" encoding="UTF-8" standalone="no"?>
<!DOCTYPE svg PUBLIC "-//W3C//DTD SVG 1.1//EN"
 "http://www.w3.org/Graphics/SVG/1.1/DTD/svg11.dtd">
<!-- Generated by graphviz version 2.38.0 (20140413.2041)
 -->
<!-- Title: controllers_diagram Pages: 1 -->
<svg width="358pt" height="600pt"
 viewBox="0.00 0.00 357.51 600.00" xmlns="http://www.w3.org/2000/svg" xmlns:xlink="http://www.w3.org/1999/xlink">
<g id="graph0" class="graph" transform="scale(1 1) rotate(0) translate(105.688 375.5)">
<title>controllers_diagram</title>
<polygon fill="white" stroke="none" points="-105.688,224.5 -105.688,-375.5 251.824,-375.5 251.824,224.5 -105.688,224.5"/>
<!-- _diagram_info -->
<g id="node1" class="node"><title>_diagram_info</title>
<text text-anchor="start" x="-93.6877" y="-195.1" font-family="Times,serif" font-size="13.00">Controllers diagram</text>
<text text-anchor="start" x="-93.6877" y="-182.1" font-family="Times,serif" font-size="13.00">Date: Feb 01 2015 &#45; 10:47</text>
<text text-anchor="start" x="-93.6877" y="-169.1" font-family="Times,serif" font-size="13.00">Migration version: 20150131071458</text>
<text text-anchor="start" x="-93.6877" y="-156.1" font-family="Times,serif" font-size="13.00">Generated by RailRoady 1.3.0</text>
<text text-anchor="start" x="-93.6877" y="-143.1" font-family="Times,serif" font-size="13.00">http://railroady.prestonlee.com</text>
</g>
<!-- ApplicationController -->
<g id="node2" class="node"><title>ApplicationController</title>
<path fill="none" stroke="black" d="M12.1792,220C12.1792,220 127.821,220 127.821,220 133.821,220 139.821,214 139.821,208 139.821,208 139.821,140 139.821,140 139.821,134 133.821,128 127.821,128 127.821,128 12.1792,128 12.1792,128 6.1792,128 0.179199,134 0.179199,140 0.179199,140 0.179199,208 0.179199,208 0.179199,214 6.1792,220 12.1792,220"/>
<text text-anchor="middle" x="70" y="143.2" font-family="Times,serif" font-size="14.00">ApplicationController</text>
<polyline fill="none" stroke="black" points="0.179199,150 139.821,150 "/>
<polyline fill="none" stroke="black" points="0.179199,174 139.821,174 "/>
<polyline fill="none" stroke="black" points="0.179199,198 139.821,198 "/>
<text text-anchor="start" x="8.1792" y="213.2" font-family="Times,serif" font-size="14.00">_layout</text>
</g>
<!-- DashboardController -->
<g id="node3" class="node"><title>DashboardController</title>
<path fill="none" stroke="black" d="M-22.0967,-239C-22.0967,-239 88.0967,-239 88.0967,-239 94.0967,-239 100.097,-245 100.097,-251 100.097,-251 100.097,-359 100.097,-359 100.097,-365 94.0967,-371 88.0967,-371 88.0967,-371 -22.0967,-371 -22.0967,-371 -28.0967,-371 -34.0967,-365 -34.0967,-359 -34.0967,-359 -34.0967,-251 -34.0967,-251 -34.0967,-245 -28.0967,-239 -22.0967,-239"/>
<text text-anchor="middle" x="33" y="-355.8" font-family="Times,serif" font-size="14.00">DashboardController</text>
<polyline fill="none" stroke="black" points="-34.0967,-349 100.097,-349 "/>
<text text-anchor="start" x="-26.0967" y="-333.8" font-family="Times,serif" font-size="14.00">departments</text>
<text text-anchor="start" x="-26.0967" y="-319.8" font-family="Times,serif" font-size="14.00">events</text>
<text text-anchor="start" x="-26.0967" y="-305.8" font-family="Times,serif" font-size="14.00">index</text>
<text text-anchor="start" x="-26.0967" y="-291.8" font-family="Times,serif" font-size="14.00">students</text>
<polyline fill="none" stroke="black" points="-34.0967,-285 100.097,-285 "/>
<polyline fill="none" stroke="black" points="-34.0967,-261 100.097,-261 "/>
<text text-anchor="start" x="-26.0967" y="-245.8" font-family="Times,serif" font-size="14.00">_layout</text>
</g>
<!-- DepartmentsController -->
<g id="node4" class="node"><title>DepartmentsController</title>
<path fill="none" stroke="black" d="M-72.5381,101C-72.5381,101 48.5381,101 48.5381,101 54.5381,101 60.5381,95 60.5381,89 60.5381,89 60.5381,-89 60.5381,-89 60.5381,-95 54.5381,-101 48.5381,-101 48.5381,-101 -72.5381,-101 -72.5381,-101 -78.5381,-101 -84.5381,-95 -84.5381,-89 -84.5381,-89 -84.5381,89 -84.5381,89 -84.5381,95 -78.5381,101 -72.5381,101"/>
<text text-anchor="middle" x="-12" y="-85.8" font-family="Times,serif" font-size="14.00">DepartmentsController</text>
<polyline fill="none" stroke="black" points="-84.5381,-79 60.5381,-79 "/>
<text text-anchor="start" x="-76.5381" y="-63.8" font-family="Times,serif" font-size="14.00">create</text>
<text text-anchor="start" x="-76.5381" y="-49.8" font-family="Times,serif" font-size="14.00">destroy</text>
<text text-anchor="start" x="-76.5381" y="-35.8" font-family="Times,serif" font-size="14.00">edit</text>
<text text-anchor="start" x="-76.5381" y="-21.8" font-family="Times,serif" font-size="14.00">index</text>
<text text-anchor="start" x="-76.5381" y="-7.8" font-family="Times,serif" font-size="14.00">new</text>
<text text-anchor="start" x="-76.5381" y="6.2" font-family="Times,serif" font-size="14.00">show</text>
<text text-anchor="start" x="-76.5381" y="20.2" font-family="Times,serif" font-size="14.00">update</text>
<polyline fill="none" stroke="black" points="-84.5381,27 60.5381,27 "/>
<polyline fill="none" stroke="black" points="-84.5381,51 60.5381,51 "/>
<text text-anchor="start" x="-76.5381" y="66.2" font-family="Times,serif" font-size="14.00">_layout</text>
<text text-anchor="start" x="-76.5381" y="80.2" font-family="Times,serif" font-size="14.00">department_params</text>
<text text-anchor="start" x="-76.5381" y="94.2" font-family="Times,serif" font-size="14.00">set_department</text>
</g>
<!-- EventsController -->
<g id="node5" class="node"><title>EventsController</title>
<path fill="none" stroke="black" d="M148.176,-137C148.176,-137 235.824,-137 235.824,-137 241.824,-137 247.824,-143 247.824,-149 247.824,-149 247.824,-327 247.824,-327 247.824,-333 241.824,-339 235.824,-339 235.824,-339 148.176,-339 148.176,-339 142.176,-339 136.176,-333 136.176,-327 136.176,-327 136.176,-149 136.176,-149 136.176,-143 142.176,-137 148.176,-137"/>
<text text-anchor="middle" x="192" y="-323.8" font-family="Times,serif" font-size="14.00">EventsController</text>
<polyline fill="none" stroke="black" points="136.176,-317 247.824,-317 "/>
<text text-anchor="start" x="144.176" y="-301.8" font-family="Times,serif" font-size="14.00">create</text>
<text text-anchor="start" x="144.176" y="-287.8" font-family="Times,serif" font-size="14.00">destroy</text>
<text text-anchor="start" x="144.176" y="-273.8" font-family="Times,serif" font-size="14.00">edit</text>
<text text-anchor="start" x="144.176" y="-259.8" font-family="Times,serif" font-size="14.00">index</text>
<text text-anchor="start" x="144.176" y="-245.8" font-family="Times,serif" font-size="14.00">new</text>
<text text-anchor="start" x="144.176" y="-231.8" font-family="Times,serif" font-size="14.00">show</text>
<text text-anchor="start" x="144.176" y="-217.8" font-family="Times,serif" font-size="14.00">update</text>
<polyline fill="none" stroke="black" points="136.176,-211 247.824,-211 "/>
<polyline fill="none" stroke="black" points="136.176,-187 247.824,-187 "/>
<text text-anchor="start" x="144.176" y="-171.8" font-family="Times,serif" font-size="14.00">_layout</text>
<text text-anchor="start" x="144.176" y="-157.8" font-family="Times,serif" font-size="14.00">event_params</text>
<text text-anchor="start" x="144.176" y="-143.8" font-family="Times,serif" font-size="14.00">set_event</text>
</g>
<!-- StudentsController -->
<g id="node6" class="node"><title>StudentsController</title>
<path fill="none" stroke="black" d="M114.114,101C114.114,101 211.886,101 211.886,101 217.886,101 223.886,95 223.886,89 223.886,89 223.886,-89 223.886,-89 223.886,-95 217.886,-101 211.886,-101 211.886,-101 114.114,-101 114.114,-101 108.114,-101 102.114,-95 102.114,-89 102.114,-89 102.114,89 102.114,89 102.114,95 108.114,101 114.114,101"/>
<text text-anchor="middle" x="163" y="-85.8" font-family="Times,serif" font-size="14.00">StudentsController</text>
<polyline fill="none" stroke="black" points="102.114,-79 223.886,-79 "/>
<text text-anchor="start" x="110.114" y="-63.8" font-family="Times,serif" font-size="14.00">create</text>
<text text-anchor="start" x="110.114" y="-49.8" font-family="Times,serif" font-size="14.00">destroy</text>
<text text-anchor="start" x="110.114" y="-35.8" font-family="Times,serif" font-size="14.00">edit</text>
<text text-anchor="start" x="110.114" y="-21.8" font-family="Times,serif" font-size="14.00">index</text>
<text text-anchor="start" x="110.114" y="-7.8" font-family="Times,serif" font-size="14.00">new</text>
<text text-anchor="start" x="110.114" y="6.2" font-family="Times,serif" font-size="14.00">show</text>
<text text-anchor="start" x="110.114" y="20.2" font-family="Times,serif" font-size="14.00">update</text>
<polyline fill="none" stroke="black" points="102.114,27 223.886,27 "/>
<polyline fill="none" stroke="black" points="102.114,51 223.886,51 "/>
<text text-anchor="start" x="110.114" y="66.2" font-family="Times,serif" font-size="14.00">_layout</text>
<text text-anchor="start" x="110.114" y="80.2" font-family="Times,serif" font-size="14.00">set_student</text>
<text text-anchor="start" x="110.114" y="94.2" font-family="Times,serif" font-size="14.00">student_params</text>
</g>
</g>
</svg>
