<?xml version="1.0" encoding="UTF-8" standalone="no"?>
<!DOCTYPE svg PUBLIC "-//W3C//DTD SVG 1.1//EN"
 "http://www.w3.org/Graphics/SVG/1.1/DTD/svg11.dtd">
<!-- Generated by graphviz version 2.38.0 (20140413.2041)
 -->
<!-- Title: models_diagram Pages: 1 -->
<svg width="740pt" height="498pt"
 viewBox="0.00 0.00 740.19 498.00" xmlns="http://www.w3.org/2000/svg" xmlns:xlink="http://www.w3.org/1999/xlink">
<g id="graph0" class="graph" transform="scale(1 1) rotate(0) translate(4 494)">
<title>models_diagram</title>
<polygon fill="white" stroke="none" points="-4,4 -4,-494 736.193,-494 736.193,4 -4,4"/>
<!-- _diagram_info -->
<g id="node1" class="node"><title>_diagram_info</title>
<text text-anchor="start" x="8" y="-405.6" font-family="Times,serif" font-size="13.00">Models diagram</text>
<text text-anchor="start" x="8" y="-392.6" font-family="Times,serif" font-size="13.00">Date: Feb 01 2015 &#45; 10:47</text>
<text text-anchor="start" x="8" y="-379.6" font-family="Times,serif" font-size="13.00">Migration version: 20150131071458</text>
<text text-anchor="start" x="8" y="-366.6" font-family="Times,serif" font-size="13.00">Generated by RailRoady 1.3.0</text>
<text text-anchor="start" x="8" y="-353.6" font-family="Times,serif" font-size="13.00">http://railroady.prestonlee.com</text>
</g>
<!-- Admin -->
<g id="node2" class="node"><title>Admin</title>
<path fill="none" stroke="black" d="M237.41,-277.5C237.41,-277.5 417.966,-277.5 417.966,-277.5 423.966,-277.5 429.966,-283.5 429.966,-289.5 429.966,-289.5 429.966,-477.5 429.966,-477.5 429.966,-483.5 423.966,-489.5 417.966,-489.5 417.966,-489.5 237.41,-489.5 237.41,-489.5 231.41,-489.5 225.41,-483.5 225.41,-477.5 225.41,-477.5 225.41,-289.5 225.41,-289.5 225.41,-283.5 231.41,-277.5 237.41,-277.5"/>
<text text-anchor="middle" x="327.688" y="-474.3" font-family="Times,serif" font-size="14.00">Admin</text>
<polyline fill="none" stroke="black" points="225.41,-467.5 429.966,-467.5 "/>
<text text-anchor="start" x="233.41" y="-452.3" font-family="Times,serif" font-size="14.00">id :integer</text>
<text text-anchor="start" x="233.41" y="-438.3" font-family="Times,serif" font-size="14.00">email :string</text>
<text text-anchor="start" x="233.41" y="-424.3" font-family="Times,serif" font-size="14.00">encrypted_password :string</text>
<text text-anchor="start" x="233.41" y="-410.3" font-family="Times,serif" font-size="14.00">reset_password_token :string</text>
<text text-anchor="start" x="233.41" y="-396.3" font-family="Times,serif" font-size="14.00">reset_password_sent_at :datetime</text>
<text text-anchor="start" x="233.41" y="-382.3" font-family="Times,serif" font-size="14.00">remember_created_at :datetime</text>
<text text-anchor="start" x="233.41" y="-368.3" font-family="Times,serif" font-size="14.00">sign_in_count :integer</text>
<text text-anchor="start" x="233.41" y="-354.3" font-family="Times,serif" font-size="14.00">current_sign_in_at :datetime</text>
<text text-anchor="start" x="233.41" y="-340.3" font-family="Times,serif" font-size="14.00">last_sign_in_at :datetime</text>
<text text-anchor="start" x="233.41" y="-326.3" font-family="Times,serif" font-size="14.00">current_sign_in_ip :string</text>
<text text-anchor="start" x="233.41" y="-312.3" font-family="Times,serif" font-size="14.00">last_sign_in_ip :string</text>
<text text-anchor="start" x="233.41" y="-298.3" font-family="Times,serif" font-size="14.00">created_at :datetime</text>
<text text-anchor="start" x="233.41" y="-284.3" font-family="Times,serif" font-size="14.00">updated_at :datetime</text>
</g>
<!-- Department -->
<g id="node3" class="node"><title>Department</title>
<path fill="none" stroke="black" d="M460.182,-326.5C460.182,-326.5 569.193,-326.5 569.193,-326.5 575.193,-326.5 581.193,-332.5 581.193,-338.5 581.193,-338.5 581.193,-428.5 581.193,-428.5 581.193,-434.5 575.193,-440.5 569.193,-440.5 569.193,-440.5 460.182,-440.5 460.182,-440.5 454.182,-440.5 448.182,-434.5 448.182,-428.5 448.182,-428.5 448.182,-338.5 448.182,-338.5 448.182,-332.5 454.182,-326.5 460.182,-326.5"/>
<text text-anchor="middle" x="514.688" y="-425.3" font-family="Times,serif" font-size="14.00">Department</text>
<polyline fill="none" stroke="black" points="448.182,-418.5 581.193,-418.5 "/>
<text text-anchor="start" x="456.182" y="-403.3" font-family="Times,serif" font-size="14.00">id :integer</text>
<text text-anchor="start" x="456.182" y="-389.3" font-family="Times,serif" font-size="14.00">name :string</text>
<text text-anchor="start" x="456.182" y="-375.3" font-family="Times,serif" font-size="14.00">code :string</text>
<text text-anchor="start" x="456.182" y="-361.3" font-family="Times,serif" font-size="14.00">category :boolean</text>
<text text-anchor="start" x="456.182" y="-347.3" font-family="Times,serif" font-size="14.00">created_at :datetime</text>
<text text-anchor="start" x="456.182" y="-333.3" font-family="Times,serif" font-size="14.00">updated_at :datetime</text>
</g>
<!-- Student -->
<g id="node5" class="node"><title>Student</title>
<path fill="none" stroke="black" d="M455.127,-0.5C455.127,-0.5 574.248,-0.5 574.248,-0.5 580.248,-0.5 586.248,-6.5 586.248,-12.5 586.248,-12.5 586.248,-228.5 586.248,-228.5 586.248,-234.5 580.248,-240.5 574.248,-240.5 574.248,-240.5 455.127,-240.5 455.127,-240.5 449.127,-240.5 443.127,-234.5 443.127,-228.5 443.127,-228.5 443.127,-12.5 443.127,-12.5 443.127,-6.5 449.127,-0.5 455.127,-0.5"/>
<text text-anchor="middle" x="514.688" y="-225.3" font-family="Times,serif" font-size="14.00">Student</text>
<polyline fill="none" stroke="black" points="443.127,-218.5 586.248,-218.5 "/>
<text text-anchor="start" x="451.127" y="-203.3" font-family="Times,serif" font-size="14.00">id :integer</text>
<text text-anchor="start" x="451.127" y="-189.3" font-family="Times,serif" font-size="14.00">name :string</text>
<text text-anchor="start" x="451.127" y="-175.3" font-family="Times,serif" font-size="14.00">regno :integer</text>
<text text-anchor="start" x="451.127" y="-161.3" font-family="Times,serif" font-size="14.00">dob :date</text>
<text text-anchor="start" x="451.127" y="-147.3" font-family="Times,serif" font-size="14.00">gender :boolean</text>
<text text-anchor="start" x="451.127" y="-133.3" font-family="Times,serif" font-size="14.00">address :text</text>
<text text-anchor="start" x="451.127" y="-119.3" font-family="Times,serif" font-size="14.00">mobile :integer</text>
<text text-anchor="start" x="451.127" y="-105.3" font-family="Times,serif" font-size="14.00">email :string</text>
<text text-anchor="start" x="451.127" y="-91.3" font-family="Times,serif" font-size="14.00">year :integer</text>
<text text-anchor="start" x="451.127" y="-77.3" font-family="Times,serif" font-size="14.00">department_id :integer</text>
<text text-anchor="start" x="451.127" y="-63.3" font-family="Times,serif" font-size="14.00">tenth :float</text>
<text text-anchor="start" x="451.127" y="-49.3" font-family="Times,serif" font-size="14.00">twelfth :float</text>
<text text-anchor="start" x="451.127" y="-35.3" font-family="Times,serif" font-size="14.00">cgpa :float</text>
<text text-anchor="start" x="451.127" y="-21.3" font-family="Times,serif" font-size="14.00">created_at :datetime</text>
<text text-anchor="start" x="451.127" y="-7.3" font-family="Times,serif" font-size="14.00">updated_at :datetime</text>
</g>
<!-- Department&#45;&gt;Student -->
<g id="edge1" class="edge"><title>Department&#45;&gt;Student</title>
<path fill="none" stroke="#e651e0" d="M514.688,-318.07C514.688,-297.573 514.688,-274.121 514.688,-250.724"/>
<ellipse fill="none" stroke="#e651e0" cx="514.688" cy="-322.188" rx="4" ry="4"/>
<polygon fill="#e651e0" stroke="#e651e0" points="514.688,-250.709 519.188,-240.709 514.688,-245.709 514.688,-240.709 514.688,-240.709 514.688,-240.709 514.688,-245.709 510.188,-240.709 514.688,-250.709 514.688,-250.709"/>
</g>
<!-- Event -->
<g id="node4" class="node"><title>Event</title>
<path fill="none" stroke="black" d="M611.182,-298.5C611.182,-298.5 720.193,-298.5 720.193,-298.5 726.193,-298.5 732.193,-304.5 732.193,-310.5 732.193,-310.5 732.193,-456.5 732.193,-456.5 732.193,-462.5 726.193,-468.5 720.193,-468.5 720.193,-468.5 611.182,-468.5 611.182,-468.5 605.182,-468.5 599.182,-462.5 599.182,-456.5 599.182,-456.5 599.182,-310.5 599.182,-310.5 599.182,-304.5 605.182,-298.5 611.182,-298.5"/>
<text text-anchor="middle" x="665.688" y="-453.3" font-family="Times,serif" font-size="14.00">Event</text>
<polyline fill="none" stroke="black" points="599.182,-446.5 732.193,-446.5 "/>
<text text-anchor="start" x="607.182" y="-431.3" font-family="Times,serif" font-size="14.00">id :integer</text>
<text text-anchor="start" x="607.182" y="-417.3" font-family="Times,serif" font-size="14.00">title :string</text>
<text text-anchor="start" x="607.182" y="-403.3" font-family="Times,serif" font-size="14.00">description :text</text>
<text text-anchor="start" x="607.182" y="-389.3" font-family="Times,serif" font-size="14.00">start_time :datetime</text>
<text text-anchor="start" x="607.182" y="-375.3" font-family="Times,serif" font-size="14.00">end_time :datetime</text>
<text text-anchor="start" x="607.182" y="-361.3" font-family="Times,serif" font-size="14.00">min_tenth :float</text>
<text text-anchor="start" x="607.182" y="-347.3" font-family="Times,serif" font-size="14.00">min_twelfth :float</text>
<text text-anchor="start" x="607.182" y="-333.3" font-family="Times,serif" font-size="14.00">min_cgpa :float</text>
<text text-anchor="start" x="607.182" y="-319.3" font-family="Times,serif" font-size="14.00">created_at :datetime</text>
<text text-anchor="start" x="607.182" y="-305.3" font-family="Times,serif" font-size="14.00">updated_at :datetime</text>
</g>
</g>
</svg>
