<?xml version="1.0" encoding="UTF-8" standalone="no"?>
<!DOCTYPE svg PUBLIC "-//W3C//DTD SVG 1.1//EN"
 "http://www.w3.org/Graphics/SVG/1.1/DTD/svg11.dtd">
<!-- Generated by graphviz version 2.38.0 (20140413.2041)
 -->
<!-- Title: models_diagram Pages: 1 -->
<svg width="504pt" height="153pt"
 viewBox="0.00 0.00 504.42 153.00" xmlns="http://www.w3.org/2000/svg" xmlns:xlink="http://www.w3.org/1999/xlink">
<g id="graph0" class="graph" transform="scale(1 1) rotate(0) translate(4 149)">
<title>models_diagram</title>
<polygon fill="white" stroke="none" points="-4,4 -4,-149 500.422,-149 500.422,4 -4,4"/>
<!-- _diagram_info -->
<g id="node1" class="node"><title>_diagram_info</title>
<text text-anchor="start" x="8" y="-130.6" font-family="Times,serif" font-size="13.00">Models diagram</text>
<text text-anchor="start" x="8" y="-117.6" font-family="Times,serif" font-size="13.00">Date: Feb 01 2015 &#45; 10:47</text>
<text text-anchor="start" x="8" y="-104.6" font-family="Times,serif" font-size="13.00">Migration version: 20150131071458</text>
<text text-anchor="start" x="8" y="-91.6" font-family="Times,serif" font-size="13.00">Generated by RailRoady 1.3.0</text>
<text text-anchor="start" x="8" y="-78.6" font-family="Times,serif" font-size="13.00">http://railroady.prestonlee.com</text>
</g>
<!-- Admin -->
<g id="node2" class="node"><title>Admin</title>
<ellipse fill="none" stroke="black" cx="259.688" cy="-108.5" rx="34.8458" ry="18"/>
<text text-anchor="middle" x="259.688" y="-104.3" font-family="Times,serif" font-size="14.00">Admin</text>
</g>
<!-- Department -->
<g id="node3" class="node"><title>Department</title>
<ellipse fill="none" stroke="black" cx="364.688" cy="-108.5" rx="51.7002" ry="18"/>
<text text-anchor="middle" x="364.688" y="-104.3" font-family="Times,serif" font-size="14.00">Department</text>
</g>
<!-- Student -->
<g id="node5" class="node"><title>Student</title>
<ellipse fill="none" stroke="black" cx="364.688" cy="-18" rx="37.2594" ry="18"/>
<text text-anchor="middle" x="364.688" y="-13.8" font-family="Times,serif" font-size="14.00">Student</text>
</g>
<!-- Department&#45;&gt;Student -->
<g id="edge1" class="edge"><title>Department&#45;&gt;Student</title>
<path fill="none" stroke="#ee9fbf" d="M364.688,-82.189C364.688,-70.9711 364.688,-57.7517 364.688,-46.3113"/>
<ellipse fill="none" stroke="#ee9fbf" cx="364.688" cy="-86.4363" rx="4" ry="4"/>
<polygon fill="#ee9fbf" stroke="#ee9fbf" points="364.688,-46.0113 369.188,-36.0113 364.688,-41.0113 364.688,-36.0113 364.688,-36.0113 364.688,-36.0113 364.688,-41.0113 360.188,-36.0113 364.688,-46.0113 364.688,-46.0113"/>
</g>
<!-- Event -->
<g id="node4" class="node"><title>Event</title>
<ellipse fill="none" stroke="black" cx="465.688" cy="-108.5" rx="30.9706" ry="18"/>
<text text-anchor="middle" x="465.688" y="-104.3" font-family="Times,serif" font-size="14.00">Event</text>
</g>
</g>
</svg>
